<svg xmlns="http://www.w3.org/2000/svg" width="940" height="520" viewBox="0 0 940 520" font-family="-apple-system,Segoe UI,Helvetica,Arial,sans-serif">
<rect width="940" height="520" fill="#ffffff"/>
<text x="90" y="30" font-size="17" font-weight="600" fill="#111827">Latencia por percentil — dónde se decide el cumplimiento</text>
<text x="90" y="50" font-size="12" fill="#6b7280">3 rondas × 1 000 000 por variante · RTT de aplicación (frontera F1, ADR-001) · escala logarítmica</text>
<line x1="90" y1="427.1" x2="865" y2="427.1" stroke="#e5e7eb" stroke-width="1"/>
<text x="82" y="431.1" font-size="11" fill="#6b7280" text-anchor="end">100 ns</text>
<line x1="90" y1="367.0" x2="865" y2="367.0" stroke="#e5e7eb" stroke-width="1"/>
<text x="82" y="371.0" font-size="11" fill="#6b7280" text-anchor="end">1 µs</text>
<line x1="90" y1="306.9" x2="865" y2="306.9" stroke="#e5e7eb" stroke-width="1"/>
<text x="82" y="310.9" font-size="11" fill="#6b7280" text-anchor="end">10 µs</text>
<line x1="90" y1="246.9" x2="865" y2="246.9" stroke="#e5e7eb" stroke-width="1"/>
<text x="82" y="250.9" font-size="11" fill="#6b7280" text-anchor="end">100 µs</text>
<line x1="90" y1="186.8" x2="865" y2="186.8" stroke="#e5e7eb" stroke-width="1"/>
<text x="82" y="190.8" font-size="11" fill="#6b7280" text-anchor="end">1 ms</text>
<line x1="90" y1="126.7" x2="865" y2="126.7" stroke="#e5e7eb" stroke-width="1"/>
<text x="82" y="130.7" font-size="11" fill="#6b7280" text-anchor="end">10 ms</text>
<text x="16" y="260" font-size="12" fill="#374151" text-anchor="middle" transform="rotate(-90 16 260)">latencia (escala log)</text>
<line x1="90.0" y1="70" x2="90.0" y2="450" stroke="#f3f4f6" stroke-width="1"/>
<text x="90.0" y="470" font-size="11" fill="#6b7280" text-anchor="middle">mín</text>
<line x1="200.7" y1="70" x2="200.7" y2="450" stroke="#f3f4f6" stroke-width="1"/>
<text x="200.7" y="470" font-size="11" fill="#6b7280" text-anchor="middle">p50</text>
<line x1="311.4" y1="70" x2="311.4" y2="450" stroke="#f3f4f6" stroke-width="1"/>
<text x="311.4" y="470" font-size="11" fill="#6b7280" text-anchor="middle">p90</text>
<line x1="422.1" y1="70" x2="422.1" y2="450" stroke="#f3f4f6" stroke-width="1"/>
<text x="422.1" y="470" font-size="11" fill="#6b7280" text-anchor="middle">p99</text>
<line x1="532.9" y1="70" x2="532.9" y2="450" stroke="#f3f4f6" stroke-width="1"/>
<text x="532.9" y="470" font-size="11" fill="#6b7280" text-anchor="middle">p99.9</text>
<line x1="643.6" y1="70" x2="643.6" y2="450" stroke="#f3f4f6" stroke-width="1"/>
<text x="643.6" y="470" font-size="11" fill="#6b7280" text-anchor="middle">p99.99</text>
<line x1="754.3" y1="70" x2="754.3" y2="450" stroke="#f3f4f6" stroke-width="1"/>
<text x="754.3" y="470" font-size="11" fill="#6b7280" text-anchor="middle">p99.999</text>
<line x1="865.0" y1="70" x2="865.0" y2="450" stroke="#f3f4f6" stroke-width="1"/>
<text x="865.0" y="470" font-size="11" fill="#6b7280" text-anchor="middle">máx</text>
<line x1="90" y1="186.8" x2="865" y2="186.8" stroke="#dc2626" stroke-width="2" stroke-dasharray="7,4"/>
<text x="98" y="179.8" font-size="12" font-weight="600" fill="#dc2626">objetivo del enunciado: 1 ms</text>
<polyline points="90.0,314.7 200.7,299.7 311.4,290.9 422.1,261.2 532.9,231.0 643.6,183.2 754.3,139.8 865.0,88.1" fill="none" stroke="#2563eb" stroke-width="2.5" stroke-linejoin="round"/>
<circle cx="90.0" cy="314.7" r="3.5" fill="#2563eb"/>
<circle cx="200.7" cy="299.7" r="3.5" fill="#2563eb"/>
<circle cx="311.4" cy="290.9" r="3.5" fill="#2563eb"/>
<circle cx="422.1" cy="261.2" r="3.5" fill="#2563eb"/>
<circle cx="532.9" cy="231.0" r="3.5" fill="#2563eb"/>
<circle cx="643.6" cy="183.2" r="3.5" fill="#2563eb"/>
<circle cx="754.3" cy="139.8" r="3.5" fill="#2563eb"/>
<circle cx="865.0" cy="88.1" r="3.5" fill="#2563eb"/>
<polyline points="90.0,315.8 200.7,302.2 311.4,295.4 422.1,267.4 532.9,245.0 643.6,203.9 754.3,152.9 865.0,98.6" fill="none" stroke="#ea580c" stroke-width="2.5" stroke-linejoin="round"/>
<circle cx="90.0" cy="315.8" r="3.5" fill="#ea580c"/>
<circle cx="200.7" cy="302.2" r="3.5" fill="#ea580c"/>
<circle cx="311.4" cy="295.4" r="3.5" fill="#ea580c"/>
<circle cx="422.1" cy="267.4" r="3.5" fill="#ea580c"/>
<circle cx="532.9" cy="245.0" r="3.5" fill="#ea580c"/>
<circle cx="643.6" cy="203.9" r="3.5" fill="#ea580c"/>
<circle cx="754.3" cy="152.9" r="3.5" fill="#ea580c"/>
<circle cx="865.0" cy="98.6" r="3.5" fill="#ea580c"/>
<polyline points="90.0,450.0 200.7,431.9 311.4,431.6 422.1,421.2 532.9,413.7 643.6,399.1 754.3,320.3 865.0,274.4" fill="none" stroke="#7c3aed" stroke-width="2.5" stroke-linejoin="round"/>
<circle cx="90.0" cy="450.0" r="3.5" fill="#7c3aed"/>
<circle cx="200.7" cy="431.9" r="3.5" fill="#7c3aed"/>
<circle cx="311.4" cy="431.6" r="3.5" fill="#7c3aed"/>
<circle cx="422.1" cy="421.2" r="3.5" fill="#7c3aed"/>
<circle cx="532.9" cy="413.7" r="3.5" fill="#7c3aed"/>
<circle cx="643.6" cy="399.1" r="3.5" fill="#7c3aed"/>
<circle cx="754.3" cy="320.3" r="3.5" fill="#7c3aed"/>
<circle cx="865.0" cy="274.4" r="3.5" fill="#7c3aed"/>
<rect x="102" y="73" width="13" height="13" rx="2" fill="#2563eb"/>
<text x="122" y="84" font-size="12" fill="#374151">B · Python + TCP — 363 muestras &gt; 1 ms</text>
<rect x="102" y="92" width="13" height="13" rx="2" fill="#ea580c"/>
<text x="122" y="103" font-size="12" fill="#374151">Bc · C + TCP (control) — 141 muestras &gt; 1 ms</text>
<rect x="102" y="111" width="13" height="13" rx="2" fill="#7c3aed"/>
<text x="122" y="122" font-size="12" fill="#374151">D · C + memoria compartida — ninguna &gt; 1 ms</text>
<text x="90" y="502" font-size="11" fill="#6b7280">Las curvas son planas hasta el p99 y se disparan después: por la mediana todas cumplen; la diferencia está en la cola.</text>
</svg>